<svg width="18" height="12" viewBox="0 0 18 12" fill="none" xmlns="http://www.w3.org/2000/svg">
<path d="M7.25002 5.0625C8.21877 4.5625 8.75002 3.84375 8.75002 2.75C8.75002 0.53125 7.09377 0 5.21877 0H2.47955e-05V11.0625H5.34377C7.37502 11.0625 9.25002 10.0938 9.25002 7.84375C9.25002 6.46875 8.59377 5.4375 7.25002 5.0625ZM2.40627 1.875H4.71877C5.59377 1.875 6.37502 2.125 6.37502 3.15625C6.37502 4.09375 5.75002 4.46875 4.87502 4.46875H2.40627V1.875ZM5.03127 9.1875H2.40627V6.125H5.06252C6.15627 6.125 6.81252 6.59375 6.81252 7.71875C6.81252 8.84375 6.00002 9.1875 5.03127 9.1875ZM16.2188 1.65625V0.5625H11.75V1.65625H16.2188ZM18 7.1875C18 4.8125 16.5938 2.8125 14.0938 2.8125C11.625 2.8125 9.96877 4.65625 9.96877 7.0625C9.96877 9.5625 11.5625 11.2812 14.0938 11.2812C16 11.2812 17.25 10.4062 17.8438 8.59375H15.9063C15.6875 9.28125 14.8125 9.625 14.1563 9.625C12.875 9.625 12.1875 8.875 12.1875 7.59375H17.9688C17.9688 7.46875 18 7.3125 18 7.1875ZM12.1875 6.1875C12.25 5.15625 12.9688 4.5 14 4.5C15.125 4.5 15.6875 5.125 15.7813 6.1875H12.1875Z" fill="black"/>
</svg>
