<svg width="14" height="14" viewBox="0 0 14 14" fill="none" xmlns="http://www.w3.org/2000/svg">
<path d="M3.12502 13.9688V4.625H0.218774V13.9688H3.12502ZM1.65627 3.375C2.59377 3.375 3.34377 2.59375 3.34377 1.65625C3.34377 0.75 2.59377 0 1.65627 0C0.750024 0 2.43187e-05 0.75 2.43187e-05 1.65625C2.43187e-05 2.59375 0.750024 3.375 1.65627 3.375ZM13.9688 13.9688H14V8.84375C14 6.34375 13.4375 4.40625 10.5 4.40625C9.09377 4.40625 8.15627 5.1875 7.75002 5.90625H7.71877V4.625H4.93752V13.9688H7.84377V9.34375C7.84377 8.125 8.06252 6.96875 9.56252 6.96875C11.0625 6.96875 11.0938 8.34375 11.0938 9.4375V13.9688H13.9688Z" fill="black"/>
</svg>
